Coordinates
version=1
nRows=12
nColumns=19
inDegrees=yes

Units are S.I. units (second, meters, Newtons, ...)
If the header above contains a line with 'inDegrees', this indicates whether rotational values are in degrees (yes) or radians (no).

endheader
time	pelvis_tilt	pelvis_list	pelvis_rotation	pelvis_tx	pelvis_ty	pelvis_tz	hip_flexion_r	hip_adduction_r	hip_rotation_r	knee_angle_r	knee_angle_r_beta	ankle_angle_r	hip_flexion_l	hip_adduction_l	hip_rotation_l	knee_angle_l	knee_angle_l_beta	ankle_angle_l
     16.60000000	     -8.55116520	      2.94657802	      6.37067631	      2.29460289	      1.01571673	      1.02431934	    -10.18970867	     -4.62391847	    -15.14053913	     61.73497685	      1.07747861	     -9.42156630	     30.49040273	      8.99638191	     -4.52325730	     13.17992394	      0.23003307	      6.01576343
     16.60666667	     -8.37556734	      2.92060014	      6.52838405	      2.29246770	      1.01156741	      1.02438649	     -8.51657567	     -4.38840357	    -13.79076968	     66.42138382	      1.15927184	     -9.49853167	     30.80525814	      8.89628258	     -4.97072536	     15.72699142	      0.27448778	      5.56162284
     16.61333333	     -8.19049629	      2.93292150	      6.74917929	      2.29007341	      1.00699937	      1.02468749	     -6.80761862	     -4.17674005	    -12.71319687	     71.01769460	      1.23949260	     -9.47662708	     31.25604416	      8.76271448	     -5.45209391	     18.77895669	      0.32775462	      5.26716359
     16.62000000	     -8.05018608	      2.95979971	      7.00871515	      2.28754083	      1.00200871	      1.02515434	     -5.02181963	     -4.02204281	    -11.89223468	     75.48760501	      1.31750725	     -9.30038752	     31.83309978	      8.58669388	     -5.88155056	     22.16727811	      0.38689199	      5.23454073
     16.62666667	     -7.89058731	      3.02112169	      7.31088988	      2.28488488	      0.99677142	      1.02569708	     -3.24671949	     -3.97154791	    -11.32364408	     79.78170141	      1.39245337	     -8.92724884	     32.39656423	      8.41298808	     -6.19383751	     25.71066118	      0.44873569	      5.50296941
     16.63333333	     -7.17063356	      3.44859879	      7.67875304	      2.28241971	      0.99220962	      1.02608901	     -2.20954874	     -4.41514263	    -11.13671771	     83.78097799	      1.46225392	     -8.29103407	     32.13459423	      8.57027780	     -6.39473653	     29.00580440	      0.50624679	      6.08157459
     16.64000000	     -7.71173277	      3.25499519	      7.96060299	      2.27938031	      0.98592150	      1.02666147	      0.51595242	     -4.31960064	    -10.70085630	     87.79263187	      1.53227049	     -7.60695844	     33.44086418	      8.20609611	     -6.36114819	     32.65962012	      0.57001790	      7.09661217
     16.64666667	     -7.74770123	      3.45047552	      8.31201976	      2.27659147	      0.98060518	      1.02693146	      2.56552447	     -4.76109021	    -10.54692030	     91.46088920	      1.59629365	     -6.67966127	     33.86778090	      8.26675473	     -6.19540063	     35.81500135	      0.62508970	      8.39011781
     16.65333333	     -7.83289331	      3.65094800	      8.58460544	      2.27374627	      0.97561928	      1.02709061	      4.74735526	     -5.33487778	    -10.36567086	     94.88440517	      1.65604528	     -5.76015489	     34.15771162	      8.34630659	     -5.98914279	     38.66182705	      0.67477618	      9.96878344
     16.66000000	     -7.98968237	      3.88883599	      8.80273431	      2.27095511	      0.97109712	      1.02712897	      7.07250936	     -6.03646117	    -10.11884271	     98.02430224	      1.71084682	     -4.82377765	     34.28853125	      8.49774466	     -5.74455595	     41.12422439	      0.71775312	     11.73395913
     16.66666667	     -7.83266969	      4.25969806	      8.95136702	      2.26833431	      0.96768429	      1.02710753	      9.07144942	     -6.90467993	     -9.82475169	    100.79625087	      1.75922645	     -3.80397295	     33.76412813	      8.75789737	     -5.48817439	     43.06928547	      0.75170084	     13.63747091
     16.67333333	     -8.38543000	      4.42713206	      8.97960969	      2.26560116	      0.96399227	      1.02697250	     12.07477906	     -7.64480958	     -9.26572976	    103.34578267	      1.80372418	     -3.12230251	     33.86126148	      8.87843301	     -5.29920368	     44.74379581	      0.78092656	     15.49674310
